<?xml version="1.0" encoding="UTF-8" standalone="no"?>
<!-- Created with Inkscape (http://www.inkscape.org/) -->

<svg
   width="1920"
   height="1080"
   viewBox="0 0 1920 1080"
   version="1.1"
   id="svg5"
   inkscape:version="1.1.1 (3bf5ae0d25, 2021-09-20, custom)"
   sodipodi:docname="dubtitles_001.sv2.svg"
   inkscape:export-filename="/home/artista/3D/maria-bernade/assets/subtitles.png"
   inkscape:export-xdpi="96"
   inkscape:export-ydpi="96"
   xmlns:inkscape="http://www.inkscape.org/namespaces/inkscape"
   xmlns:sodipodi="http://sodipodi.sourceforge.net/DTD/sodipodi-0.dtd"
   xmlns="http://www.w3.org/2000/svg"
   xmlns:svg="http://www.w3.org/2000/svg">
  <sodipodi:namedview
     id="namedview7"
     pagecolor="#ffffff"
     bordercolor="#666666"
     borderopacity="1.0"
     inkscape:pageshadow="2"
     inkscape:pageopacity="0.0"
     inkscape:pagecheckerboard="0"
     inkscape:document-units="px"
     showgrid="false"
     inkscape:zoom="1.3010417"
     inkscape:cx="929.63971"
     inkscape:cy="582.61009"
     inkscape:window-width="3813"
     inkscape:window-height="2087"
     inkscape:window-x="1467"
     inkscape:window-y="44"
     inkscape:window-maximized="1"
     inkscape:current-layer="layer1" />
  <defs
     id="defs2">
    <rect
       x="-120.24976"
       y="85.311421"
       width="68.71982"
       height="76.756781"
       id="rect23822" />
  </defs>
  <g
     inkscape:label="Layer 1"
     inkscape:groupmode="layer"
     id="layer1">
    <path
       id="rect846"
       style="stroke-width:1.02374;stop-color:#000000"
       d="M -0.09457566,987.62018 H 1915.7523 v 60.11652 H -0.09457566 Z" />
    <text
       xml:space="preserve"
       style="font-style:normal;font-weight:normal;font-size:40px;line-height:1.25;font-family:sans-serif;fill:#ffffff;fill-opacity:1;stroke:none"
       x="1774.4988"
       y="1135.0468"
       id="text3412-3"><tspan
         sodipodi:role="line"
         id="tspan3410-6"
         x="1774.4988"
         y="1135.0468"
         style="font-style:normal;font-variant:normal;font-weight:normal;font-stretch:normal;font-family:'Exo 2';-inkscape-font-specification:'Exo 2, ';text-align:end;text-anchor:end">Casamento</tspan></text>
    <text
       xml:space="preserve"
       id="text23820"
       style="font-style:normal;font-weight:normal;font-size:40px;line-height:1.25;font-family:sans-serif;white-space:pre;shape-inside:url(#rect23822);fill:#000000;fill-opacity:1;stroke:none" />
    <g
       aria-label="Maria Bernadete"
       transform="matrix(0.9622242,0,0,1.0392588,91.48694,-3.3317278)"
       id="text3412"
       style="font-size:94.7021px;line-height:1.25;fill:#ffffff;stroke-width:2.36755">
      <path
         d="m 92.288629,947.91574 q 6.155637,0 6.345041,6.25034 l 2.46225,59.09412 H 84.901865 L 82.818419,961.36344 H 81.303185 L 72.9694,998.01315 q -0.947021,5.49275 -6.818551,5.49275 h -9.943721 q -5.776828,0 -6.913253,-5.49275 L 40.96009,961.36344 h -1.515234 l -1.79934,51.89676 H 21.451457 l 2.367552,-59.09412 q 0.284106,-6.25034 6.345041,-6.25034 h 15.909953 q 5.682126,0 6.72385,5.58743 l 6.439743,29.07354 q 0.47351,2.27285 0.757616,4.73511 0.378809,2.36755 0.662915,4.8298 h 1.041723 q 0.378809,-2.46225 0.662915,-4.8298 0.284106,-2.46226 0.757617,-4.82981 l 6.155636,-28.97884 q 1.136426,-5.58743 6.913254,-5.58743 z"
         style="font-weight:800;font-family:'Exo 2';-inkscape-font-specification:'Exo 2 Ultra-Bold'"
         id="path64749" />
      <path
         d="m 136.51446,964.86742 q 6.34504,0 10.70134,1.70464 4.451,1.70463 6.72385,5.68212 2.27285,3.97749 2.27285,10.98545 v 30.02057 h -13.7318 l -2.36756,-10.1331 -1.13642,-1.7047 v -18.27748 q -0.0947,-2.93576 -1.51524,-4.16689 -1.32583,-1.32583 -4.92451,-1.32583 -3.69338,0 -9.0914,0.18941 -5.39802,0.0947 -11.26955,0.47351 l -1.51523,-11.08015 q 3.50398,-0.66291 8.14438,-1.13642 4.7351,-0.56822 9.47021,-0.85232 4.7351,-0.37881 8.23908,-0.37881 z m 12.87949,19.50863 -0.0947,8.7126 H 129.1277 q -2.17815,0.0947 -3.21987,1.13642 -0.94702,0.94702 -0.94702,2.65166 v 1.79934 q 0,1.79933 1.13642,2.84103 1.23113,0.9471 3.59868,0.9471 2.36755,0 5.01921,-1.0418 2.65166,-1.0417 5.20862,-2.84103 2.55696,-1.79934 4.451,-3.88279 v 6.06092 q -0.75762,1.5152 -2.36756,3.7881 -1.51523,2.2728 -3.97748,4.6404 -2.46226,2.2729 -5.96624,3.7881 -3.50397,1.5152 -8.14438,1.5152 -4.26159,0 -7.86027,-1.5152 -3.59868,-1.5152 -5.77683,-4.451 -2.08345,-2.9358 -2.08345,-7.3868 v -4.73508 q 0,-5.68213 3.97749,-8.8073 4.07219,-3.21987 10.98545,-3.21987 z"
         style="font-weight:800;font-family:'Exo 2';-inkscape-font-specification:'Exo 2 Ultra-Bold'"
         id="path64751" />
      <path
         d="m 178.84625,966.19325 2.08344,9.47021 1.70464,1.23113 v 36.36561 h -17.23578 v -47.06695 z m 22.91791,-1.32583 -1.51524,15.81525 h -4.5457 q -2.84106,0 -6.25034,0.56821 -3.40927,0.56821 -8.61789,1.89404 l -1.04172,-9.3755 q 4.7351,-4.451 9.65961,-6.62915 5.01921,-2.27285 9.65962,-2.27285 z"
         style="font-weight:800;font-family:'Exo 2';-inkscape-font-specification:'Exo 2 Ultra-Bold'"
         id="path64753" />
      <path
         d="m 224.58741,966.19325 v 47.06695 h -17.14108 v -47.06695 z m -4.92451,-21.21327 q 5.01922,0 5.01922,5.11391 v 4.92451 q 0,5.11391 -5.01922,5.11391 h -7.38676 q -5.01921,0 -5.01921,-5.11391 v -4.92451 q 0,-5.11391 5.01921,-5.11391 z"
         style="font-weight:800;font-family:'Exo 2';-inkscape-font-specification:'Exo 2 Ultra-Bold'"
         id="path64755" />
      <path
         d="m 260.76364,964.86742 q 6.34504,0 10.70134,1.70464 4.451,1.70463 6.72385,5.68212 2.27285,3.97749 2.27285,10.98545 v 30.02057 h -13.73181 l -2.36755,-10.1331 -1.13643,-1.7047 v -18.27748 q -0.0947,-2.93576 -1.51523,-4.16689 -1.32583,-1.32583 -4.92451,-1.32583 -3.69338,0 -9.0914,0.18941 -5.39802,0.0947 -11.26955,0.47351 l -1.51524,-11.08015 q 3.50398,-0.66291 8.14439,-1.13642 4.7351,-0.56822 9.47021,-0.85232 4.7351,-0.37881 8.23908,-0.37881 z m 12.87948,19.50863 -0.0947,8.7126 h -20.17155 q -2.17814,0.0947 -3.21987,1.13642 -0.94702,0.94702 -0.94702,2.65166 v 1.79934 q 0,1.79933 1.13643,2.84103 1.23112,0.9471 3.59868,0.9471 2.36755,0 5.01921,-1.0418 2.65166,-1.0417 5.20861,-2.84103 2.55696,-1.79934 4.451,-3.88279 v 6.06092 q -0.75761,1.5152 -2.36755,3.7881 -1.51523,2.2728 -3.97749,4.6404 -2.46225,2.2729 -5.96623,3.7881 -3.50398,1.5152 -8.14438,1.5152 -4.2616,0 -7.86028,-1.5152 -3.59868,-1.5152 -5.77682,-4.451 -2.08345,-2.9358 -2.08345,-7.3868 v -4.73508 q 0,-5.68213 3.97749,-8.8073 4.07219,-3.21987 10.98544,-3.21987 z"
         style="font-weight:800;font-family:'Exo 2';-inkscape-font-specification:'Exo 2 Ultra-Bold'"
         id="path64757" />
      <path
         d="m 337.28283,947.15813 q 8.902,0 14.11061,1.51523 5.30332,1.42053 7.57617,5.11391 2.27285,3.69338 2.27285,10.41723 0,7.00796 -2.74636,10.70134 -2.65166,3.59868 -8.9967,4.16689 v 0.56822 q 7.76557,0.66291 10.79604,5.11391 3.12517,4.3563 3.12517,12.21657 0,6.72387 -2.46226,10.41727 -2.36755,3.6933 -7.48146,5.2086 -5.01921,1.4205 -13.06889,1.4205 -6.72385,0 -11.83777,-0.095 -5.01921,0 -9.2808,-0.1894 -4.16689,-0.1894 -8.61789,-0.4735 l 1.42053,-11.9325 q 2.46225,0.095 9.1861,0.1894 6.81855,0.095 15.90996,0.095 3.40927,0 5.20861,-0.5682 1.89404,-0.6629 2.55696,-2.46223 0.75761,-1.79934 0.75761,-5.11392 0,-3.50397 -0.75761,-5.39802 -0.75762,-1.89404 -2.65166,-2.55695 -1.79934,-0.75762 -5.30332,-0.75762 h -25.00135 v -10.70134 h 24.81195 q 2.93576,0 4.5457,-0.56821 1.60993,-0.56821 2.27285,-2.17815 0.66291,-1.60993 0.66291,-4.6404 0,-2.93577 -0.66291,-4.451 -0.66292,-1.51523 -2.36755,-2.08345 -1.70464,-0.56821 -4.82981,-0.56821 -5.68213,0 -9.94372,0 -4.2616,-0.0947 -7.76557,0 -3.40928,0 -6.62915,0.28411 l -1.42053,-11.93247 q 4.07219,-0.37881 7.86027,-0.47351 3.78809,-0.1894 8.33379,-0.1894 4.5457,-0.0947 10.41723,-0.0947 z m -9.28081,0.75761 v 65.34446 h -17.33048 v -65.34446 z"
         style="font-weight:800;font-family:'Exo 2';-inkscape-font-specification:'Exo 2 Ultra-Bold'"
         id="path64759" />
      <path
         d="m 395.24042,964.86742 q 12.69008,0 18.0881,4.16689 5.39802,4.16689 5.39802,12.31127 0.0947,6.53445 -3.59868,9.56492 -3.69338,3.03046 -13.06889,3.03046 H 376.3 v -8.61789 h 20.92916 q 3.21987,0 4.07219,-0.94702 0.94702,-0.94702 0.94702,-3.40927 -0.0947,-2.74637 -1.51523,-3.69339 -1.42053,-0.94702 -4.92451,-0.94702 -3.31458,-0.0947 -5.11392,0.75762 -1.70463,0.85232 -2.36755,3.40928 -0.66291,2.55695 -0.66291,7.67087 0,5.11391 0.75761,7.86027 0.85232,2.74636 2.93577,3.88279 2.17815,1.1364 6.06093,1.1364 3.03047,0 7.95498,-0.1894 5.01921,-0.2841 10.51193,-0.8523 l 1.60994,10.4172 q -3.03047,1.5153 -6.72385,2.3676 -3.59868,0.8523 -7.48147,1.2311 -3.88278,0.3788 -7.76557,0.3788 -9.47021,0 -15.15233,-2.6516 -5.68213,-2.6517 -8.23909,-8.0497 -2.46225,-5.49274 -2.46225,-13.73182 0,-9.28081 2.55695,-14.77353 2.55696,-5.49272 8.14439,-7.86028 5.68212,-2.46225 14.86823,-2.46225 z"
         style="font-weight:800;font-family:'Exo 2';-inkscape-font-specification:'Exo 2 Ultra-Bold'"
         id="path64761" />
      <path
         d="m 439.65562,966.19325 2.08344,9.47021 1.70464,1.23113 v 36.36561 h -17.23578 v -47.06695 z m 22.91791,-1.32583 -1.51524,15.81525 h -4.5457 q -2.84106,0 -6.25034,0.56821 -3.40927,0.56821 -8.61789,1.89404 l -1.04172,-9.3755 q 4.7351,-4.451 9.65961,-6.62915 5.01922,-2.27285 9.65962,-2.27285 z"
         style="font-weight:800;font-family:'Exo 2';-inkscape-font-specification:'Exo 2 Ultra-Bold'"
         id="path64763" />
      <path
         d="m 502.82197,964.86742 q 13.6371,0 13.6371,13.16359 v 35.22919 h -17.23578 v -29.83117 q 0,-2.27285 -0.94702,-3.12517 -0.85232,-0.85232 -3.12517,-0.85232 -2.36755,0 -5.11391,0.66292 -2.65166,0.66291 -6.72385,2.46225 l -0.85232,-8.902 q 4.92451,-4.35629 10.13312,-6.53444 5.20862,-2.27285 10.22783,-2.27285 z m -21.30797,1.32583 2.08344,9.47021 1.51524,1.23113 v 36.36561 H 467.8769 v -47.06695 z"
         style="font-weight:800;font-family:'Exo 2';-inkscape-font-specification:'Exo 2 Ultra-Bold'"
         id="path64765" />
      <path
         d="m 551.97232,964.86742 q 6.34504,0 10.70134,1.70464 4.45099,1.70463 6.72384,5.68212 2.27286,3.97749 2.27286,10.98545 v 30.02057 h -13.73181 l -2.36755,-10.1331 -1.13643,-1.7047 v -18.27748 q -0.0947,-2.93576 -1.51523,-4.16689 -1.32583,-1.32583 -4.92451,-1.32583 -3.69338,0 -9.0914,0.18941 -5.39802,0.0947 -11.26955,0.47351 l -1.51524,-11.08015 q 3.50398,-0.66291 8.14438,-1.13642 4.73511,-0.56822 9.47021,-0.85232 4.73511,-0.37881 8.23909,-0.37881 z m 12.87948,19.50863 -0.0947,8.7126 h -20.17155 q -2.17814,0.0947 -3.21987,1.13642 -0.94702,0.94702 -0.94702,2.65166 v 1.79934 q 0,1.79933 1.13643,2.84103 1.23112,0.9471 3.59868,0.9471 2.36755,0 5.01921,-1.0418 2.65166,-1.0417 5.20861,-2.84103 2.55696,-1.79934 4.451,-3.88279 v 6.06092 q -0.75761,1.5152 -2.36755,3.7881 -1.51523,2.2728 -3.97749,4.6404 -2.46225,2.2729 -5.96623,3.7881 -3.50398,1.5152 -8.14438,1.5152 -4.2616,0 -7.86028,-1.5152 -3.59868,-1.5152 -5.77682,-4.451 -2.08345,-2.9358 -2.08345,-7.3868 v -4.73508 q 0,-5.68213 3.97749,-8.8073 4.07219,-3.21987 10.98544,-3.21987 z"
         style="font-weight:800;font-family:'Exo 2';-inkscape-font-specification:'Exo 2 Ultra-Bold'"
         id="path64767" />
      <path
         d="m 597.14515,964.86742 q 5.20862,0 9.84902,1.51523 4.6404,1.51524 7.86027,5.20862 l -1.23112,7.10266 q -2.46226,-0.75762 -4.64041,-1.42054 -2.08344,-0.75761 -5.30332,-0.75761 -2.36755,0 -3.88278,0.85232 -1.42053,0.85231 -2.17815,3.59868 -0.66291,2.65165 -0.66291,8.14438 0,4.92451 0.66291,7.38676 0.66291,2.36755 2.08345,3.21987 1.51523,0.75761 3.69338,0.75761 2.27285,0 3.78808,-0.3788 1.60994,-0.47351 3.03047,-1.23113 1.42053,-0.85232 3.12517,-1.89404 l 1.13642,7.57617 q -2.27285,4.1669 -6.72384,7.008 -4.451,2.841 -11.55366,2.841 -9.18611,0 -13.06889,-6.5344 -3.88279,-6.6292 -3.88279,-18.65634 0,-9.56491 1.98875,-14.77353 2.08344,-5.30332 6.06093,-7.38676 3.97749,-2.17815 9.84902,-2.17815 z m 31.7252,-17.8987 v 66.29148 h -13.6371 l -1.70464,-8.902 -1.79934,-1.2311 v -30.21 l 0.56822,-1.23113 q -0.28411,-2.93577 -0.47351,-6.25034 -0.0947,-3.31457 -0.0947,-6.53444 v -11.93247 z"
         style="font-weight:800;font-family:'Exo 2';-inkscape-font-specification:'Exo 2 Ultra-Bold'"
         id="path64769" />
      <path
         d="m 662.30014,964.86742 q 12.69008,0 18.0881,4.16689 5.39802,4.16689 5.39802,12.31127 0.0947,6.53445 -3.59868,9.56492 -3.69338,3.03046 -13.06889,3.03046 h -25.75897 v -8.61789 h 20.92916 q 3.21987,0 4.07219,-0.94702 0.94702,-0.94702 0.94702,-3.40927 -0.0947,-2.74637 -1.51523,-3.69339 -1.42053,-0.94702 -4.92451,-0.94702 -3.31457,-0.0947 -5.11391,0.75762 -1.70464,0.85232 -2.36755,3.40928 -0.66292,2.55695 -0.66292,7.67087 0,5.11391 0.75762,7.86027 0.85232,2.74636 2.93576,3.88279 2.17815,1.1364 6.06094,1.1364 3.03046,0 7.95497,-0.1894 5.01922,-0.2841 10.51194,-0.8523 l 1.60993,10.4172 q -3.03046,1.5153 -6.72385,2.3676 -3.59868,0.8523 -7.48146,1.2311 -3.88279,0.3788 -7.76557,0.3788 -9.47022,0 -15.15234,-2.6516 -5.68213,-2.6517 -8.23908,-8.0497 -2.46226,-5.49274 -2.46226,-13.73182 0,-9.28081 2.55696,-14.77353 2.55695,-5.49272 8.14438,-7.86028 5.68212,-2.46225 14.86823,-2.46225 z"
         style="font-weight:800;font-family:'Exo 2';-inkscape-font-specification:'Exo 2 Ultra-Bold'"
         id="path64771" />
      <path
         d="m 715.04913,953.50317 v 43.56296 q 0,2.08345 1.04172,3.03047 1.04172,0.947 3.50398,0.947 h 5.49272 l 1.89404,11.2696 q -1.89404,0.7576 -4.6404,1.2311 -2.65166,0.4735 -5.39802,0.6629 -2.74636,0.2841 -4.73511,0.2841 -6.62914,0 -10.51193,-3.4093 -3.78808,-3.5039 -3.78808,-9.6596 l -0.0947,-47.91923 z m 12.21657,12.69008 v 10.70134 h -37.50203 v -10.22783 l 9.0914,-0.47351 z"
         style="font-weight:800;font-family:'Exo 2';-inkscape-font-specification:'Exo 2 Ultra-Bold'"
         id="path64773" />
      <path
         d="m 757.28622,964.86742 q 12.69008,0 18.0881,4.16689 5.39802,4.16689 5.39802,12.31127 0.0947,6.53445 -3.59868,9.56492 -3.69338,3.03046 -13.06889,3.03046 H 738.3458 v -8.61789 h 20.92917 q 3.21987,0 4.07219,-0.94702 0.94702,-0.94702 0.94702,-3.40927 -0.0947,-2.74637 -1.51524,-3.69339 -1.42053,-0.94702 -4.9245,-0.94702 -3.31458,-0.0947 -5.11392,0.75762 -1.70464,0.85232 -2.36755,3.40928 -0.66292,2.55695 -0.66292,7.67087 0,5.11391 0.75762,7.86027 0.85232,2.74636 2.93577,3.88279 2.17814,1.1364 6.06093,1.1364 3.03047,0 7.95498,-0.1894 5.01921,-0.2841 10.51193,-0.8523 l 1.60994,10.4172 q -3.03047,1.5153 -6.72385,2.3676 -3.59868,0.8523 -7.48147,1.2311 -3.88278,0.3788 -7.76557,0.3788 -9.47021,0 -15.15234,-2.6516 -5.68212,-2.6517 -8.23908,-8.0497 -2.46225,-5.49274 -2.46225,-13.73182 0,-9.28081 2.55695,-14.77353 2.55696,-5.49272 8.14438,-7.86028 5.68213,-2.46225 14.86823,-2.46225 z"
         style="font-weight:800;font-family:'Exo 2';-inkscape-font-specification:'Exo 2 Ultra-Bold'"
         id="path64775" />
    </g>
    <text
       xml:space="preserve"
       style="font-style:normal;font-weight:normal;font-size:94.7021px;line-height:1.25;font-family:sans-serif;fill:#000000;fill-opacity:1;stroke:none;stroke-width:2.36755"
       x="-14.886268"
       y="1222.2261"
       id="text3412-7"
       transform="scale(0.96222423,1.0392588)"><tspan
         sodipodi:role="line"
         id="tspan3410-5"
         x="-14.886268"
         y="1222.2261"
         style="font-style:normal;font-variant:normal;font-weight:800;font-stretch:normal;font-family:'Exo 2';-inkscape-font-specification:'Exo 2 Ultra-Bold';stroke-width:2.36755;fill:#000000">Maria Bernadete</tspan></text>
  </g>
</svg>
